<svg width="37" height="37" viewBox="0 0 37 37" fill="none" xmlns="http://www.w3.org/2000/svg">
<path fill-rule="evenodd" clip-rule="evenodd" d="M4.56511e-07 3.08414C4.56511e-07 2.26617 0.324935 1.48171 0.903322 0.903326C1.48171 0.324939 2.26617 4.11158e-06 3.08413 4.11158e-06H33.8281C34.2335 -0.000657939 34.635 0.0786393 35.0097 0.233356C35.3844 0.388072 35.7248 0.615169 36.0116 0.901645C36.2984 1.18812 36.5259 1.52835 36.681 1.90285C36.8361 2.27736 36.9159 2.67878 36.9156 3.08414V33.8281C36.9161 34.2336 36.8366 34.6351 36.6817 35.0098C36.5268 35.3845 36.2995 35.725 36.0129 36.0117C35.7263 36.2985 35.386 36.5259 35.0114 36.681C34.6368 36.8361 34.2353 36.9159 33.8298 36.9156H3.08413C2.67898 36.9156 2.27779 36.8358 1.9035 36.6807C1.52921 36.5256 1.18914 36.2983 0.902729 36.0117C0.616318 35.7252 0.389178 35.385 0.234284 35.0106C0.0793909 34.6362 -0.000219976 34.235 4.56511e-07 33.8298V3.08414ZM14.6119 14.0749H19.6106V16.5852C20.3321 15.1421 22.1779 13.8434 24.9516 13.8434C30.2691 13.8434 31.5293 16.7178 31.5293 21.9917V31.7609H26.148V23.1931C26.148 20.1895 25.4265 18.4947 23.5941 18.4947C21.052 18.4947 19.9949 20.3221 19.9949 23.1931V31.7609H14.6119V14.0749ZM5.38297 31.531H10.7659V13.8434H5.38297V31.5293V31.531ZM11.5361 8.07446C11.5463 8.53536 11.4643 8.99364 11.2949 9.42241C11.1255 9.85118 10.8722 10.2418 10.5499 10.5714C10.2275 10.9009 9.84254 11.1627 9.41761 11.3415C8.99267 11.5203 8.5363 11.6123 8.0753 11.6123C7.61429 11.6123 7.15792 11.5203 6.73298 11.3415C6.30805 11.1627 5.92309 10.9009 5.60072 10.5714C5.27835 10.2418 5.02505 9.85118 4.85568 9.42241C4.68632 8.99364 4.60431 8.53536 4.61445 8.07446C4.63438 7.16978 5.00775 6.30887 5.65461 5.6761C6.30148 5.04332 7.1704 4.68899 8.0753 4.68899C8.98019 4.68899 9.84912 5.04332 10.496 5.6761C11.1428 6.30887 11.5162 7.16978 11.5361 8.07446Z" fill="#00B2CD"/>
</svg>
