<svg width="37" height="37" viewBox="0 0 37 37" fill="none" xmlns="http://www.w3.org/2000/svg">
<path fill-rule="evenodd" clip-rule="evenodd" d="M10.8482 0.110747C12.8164 0.0201358 13.444 0 18.4578 0C23.4716 0 24.0992 0.0218138 26.0658 0.110747C28.0324 0.19968 29.3748 0.513463 30.5494 0.968196C31.7793 1.433 32.8952 2.15956 33.8181 3.09923C34.7577 4.02045 35.4826 5.13463 35.9458 6.36627C36.4022 7.54086 36.7143 8.88324 36.8049 10.8465C36.8955 12.8181 36.9156 13.4457 36.9156 18.4578C36.9156 23.4716 36.8938 24.0992 36.8049 26.0675C36.716 28.0307 36.4022 29.3731 35.9458 30.5477C35.4826 31.7795 34.7565 32.8955 33.8181 33.8181C32.8952 34.7577 31.7793 35.4826 30.5494 35.9458C29.3748 36.4022 28.0324 36.7143 26.0691 36.8049C24.0992 36.8955 23.4716 36.9156 18.4578 36.9156C13.444 36.9156 12.8164 36.8938 10.8482 36.8049C8.88492 36.716 7.54253 36.4022 6.36795 35.9458C5.13617 35.4826 4.02015 34.7565 3.09756 33.8181C2.15852 32.8963 1.43185 31.7808 0.968196 30.5494C0.513463 29.3748 0.201358 28.0324 0.110747 26.0691C0.0201358 24.0975 0 23.4699 0 18.4578C0 13.444 0.0218138 12.8164 0.110747 10.8498C0.19968 8.88324 0.513463 7.54086 0.968196 6.36627C1.43253 5.13477 2.15976 4.0193 3.09923 3.09756C4.02052 2.15873 5.13542 1.43206 6.36627 0.968196C7.54086 0.513463 8.88324 0.201358 10.8465 0.110747H10.8482ZM25.9164 3.43315C23.97 3.34422 23.3861 3.32576 18.4578 3.32576C13.5296 3.32576 12.9456 3.34422 10.9992 3.43315C9.1987 3.51537 8.22212 3.81573 7.57106 4.06911C6.71025 4.40471 6.09444 4.80239 5.44841 5.44841C4.83602 6.04418 4.36474 6.76946 4.06911 7.57106C3.81573 8.22212 3.51537 9.1987 3.43315 10.9992C3.34422 12.9456 3.32576 13.5296 3.32576 18.4578C3.32576 23.3861 3.34422 23.97 3.43315 25.9164C3.51537 27.7169 3.81573 28.6935 4.06911 29.3446C4.36443 30.145 4.83595 30.8715 5.44841 31.4672C6.0441 32.0797 6.77066 32.5512 7.57106 32.8465C8.22212 33.0999 9.1987 33.4003 10.9992 33.4825C12.9456 33.5714 13.5279 33.5899 18.4578 33.5899C23.3877 33.5899 23.97 33.5714 25.9164 33.4825C27.7169 33.4003 28.6935 33.0999 29.3446 32.8465C30.2054 32.5109 30.8212 32.1132 31.4672 31.4672C32.0797 30.8715 32.5512 30.145 32.8465 29.3446C33.0999 28.6935 33.4003 27.7169 33.4825 25.9164C33.5714 23.97 33.5899 23.3861 33.5899 18.4578C33.5899 13.5296 33.5714 12.9456 33.4825 10.9992C33.4003 9.1987 33.0999 8.22212 32.8465 7.57106C32.5109 6.71025 32.1132 6.09444 31.4672 5.44841C30.8714 4.83607 30.1461 4.36479 29.3446 4.06911C28.6935 3.81573 27.7169 3.51537 25.9164 3.43315ZM16.1002 24.1479C17.4169 24.6959 18.883 24.7699 20.2481 24.3571C21.6132 23.9444 22.7927 23.0704 23.5851 21.8847C24.3774 20.6989 24.7336 19.2748 24.5926 17.8556C24.4516 16.4364 23.8223 15.1102 22.8122 14.1034C22.1682 13.4599 21.3896 12.9671 20.5324 12.6606C19.6751 12.3541 18.7606 12.2415 17.8546 12.3309C16.9486 12.4202 16.0737 12.7093 15.2928 13.1774C14.512 13.6455 13.8446 14.2809 13.3388 15.0378C12.833 15.7948 12.5013 16.6545 12.3676 17.555C12.2339 18.4555 12.3015 19.3745 12.5656 20.2457C12.8297 21.117 13.2837 21.9188 13.8949 22.5936C14.5061 23.2683 15.2593 23.7991 16.1002 24.1479ZM11.7492 11.7492C12.6302 10.8683 13.6761 10.1694 14.8272 9.69264C15.9782 9.21585 17.2119 8.97045 18.4578 8.97045C19.7037 8.97045 20.9374 9.21585 22.0885 9.69264C23.2395 10.1694 24.2854 10.8683 25.1664 11.7492C26.0474 12.6302 26.7462 13.6761 27.223 14.8272C27.6998 15.9782 27.9452 17.2119 27.9452 18.4578C27.9452 19.7037 27.6998 20.9374 27.223 22.0885C26.7462 23.2395 26.0474 24.2854 25.1664 25.1664C23.3872 26.9456 20.974 27.9452 18.4578 27.9452C15.9416 27.9452 13.5285 26.9456 11.7492 25.1664C9.97001 23.3872 8.97046 20.974 8.97046 18.4578C8.97046 15.9416 9.97001 13.5285 11.7492 11.7492ZM30.0493 10.3834C30.2676 10.1774 30.4424 9.92977 30.5633 9.65507C30.6842 9.38037 30.7487 9.08421 30.7531 8.78412C30.7575 8.48404 30.7016 8.18612 30.5888 7.90802C30.4759 7.62991 30.3085 7.37727 30.0962 7.16505C29.884 6.95284 29.6314 6.78536 29.3533 6.67253C29.0752 6.5597 28.7773 6.50382 28.4772 6.5082C28.1771 6.51257 27.8809 6.57711 27.6062 6.698C27.3315 6.81889 27.0839 6.99366 26.8779 7.21197C26.4774 7.63655 26.2581 8.20051 26.2666 8.78412C26.2752 9.36774 26.5108 9.92507 26.9235 10.3378C27.3362 10.7505 27.8936 10.9861 28.4772 10.9946C29.0608 11.0032 29.6247 10.7839 30.0493 10.3834Z" fill="#00B2CD"/>
</svg>
