<svg width="39" height="31" viewBox="0 0 39 31" fill="none" xmlns="http://www.w3.org/2000/svg">
<path d="M38.1003 3.67397C36.6992 4.29483 35.194 4.71432 33.6117 4.90394C35.2444 3.927 36.4658 2.38942 37.0482 0.578096C35.5143 1.48922 33.8354 2.13056 32.0847 2.47422C30.9074 1.21718 29.348 0.383997 27.6487 0.104022C25.9493 -0.175953 24.2051 0.112945 22.6867 0.925863C21.1684 1.73878 19.9609 3.03024 19.2518 4.59972C18.5426 6.16921 18.3715 7.92892 18.7649 9.60565C15.6567 9.44959 12.6161 8.64173 9.84041 7.2345C7.06468 5.82726 4.61587 3.85211 2.65289 1.43722C1.9817 2.59503 1.59576 3.93742 1.59576 5.36706C1.59501 6.65407 1.91195 7.92136 2.51845 9.0565C3.12495 10.1916 4.00226 11.1595 5.07254 11.8743C3.8313 11.8348 2.61744 11.4994 1.532 10.896V10.9967C1.53187 12.8018 2.15626 14.5513 3.29922 15.9484C4.44218 17.3455 6.03331 18.3042 7.80262 18.6617C6.65116 18.9733 5.44394 19.0193 4.27215 18.796C4.77134 20.3491 5.74373 21.7073 7.05318 22.6804C8.36263 23.6534 9.94359 24.1927 11.5747 24.2226C8.80578 26.3962 5.38614 27.5753 1.86592 27.5701C1.24235 27.5703 0.619304 27.5339 0 27.4611C3.57323 29.7585 7.73272 30.9778 11.9808 30.9731C26.3611 30.9731 34.2225 19.0628 34.2225 8.73309C34.2225 8.3975 34.2141 8.05854 34.199 7.72295C35.7281 6.61711 37.048 5.24775 38.0969 3.67901L38.1003 3.67397Z" fill="#00B2CD"/>
</svg>
